<?xml version="1.0" encoding="utf-8"?>
<svg viewBox="17.1654 14.3154 467.3615 477.0065" xmlns="http://www.w3.org/2000/svg">
  <path d="M 903.4 -123.484 C 926.74 14.099 802.505 158.079 604.077 223.415 C 597.335 385.789 423.982 513.107 257.949 567.617 C 386.037 467.842 464.817 364.408 418.974 257.315 C 204.896 266.02 33.185 171.007 8.918 30.415 C -19.148 -132.323 158.427 -298.73 405.491 -341.215 C 652.516 -383.703 875.449 -286.216 903.4 -123.484 Z M 238.382 -279.621 C 297.92 -167.331 380.892 -77.271 470.662 13.097 L 474.288 16.847 L 474.351 16.785 C 496.178 38.715 518.391 60.708 540.756 83.035 C 521.9 97.848 501.782 111.235 480.818 123.347 L 509.35 151.877 L 578.067 83.16 C 620.404 110.796 654.353 146.806 682.161 188.97 L 710.225 160.91 C 667.755 133.417 630.485 100.704 604.195 57.034 L 673.131 -11.904 L 644.601 -40.434 C 633.486 -18.581 620.188 1.581 605.131 20.159 C 561.279 -23.641 518.669 -65.683 475.006 -105.311 C 474.782 -105.514 474.574 -105.733 474.35 -105.936 C 402.256 -171.309 327.147 -230.149 238.382 -279.622 Z M 710.257 -279.622 C 710.257 -279.622 710.257 -279.621 710.256 -279.621 C 710.257 -279.621 710.257 -279.621 710.257 -279.621 Z M 488.287 -118.465 L 511.101 -96.903 L 567.911 -153.715 L 581.131 -140.528 L 524.693 -84.088 L 549.287 -60.902 C 611.089 -127.822 666.886 -197.821 710.256 -279.621 C 627.219 -233.341 556.135 -178.841 488.287 -118.465 Z M 380.727 -153.715 L 581.287 46.815 C 576.927 51.258 572.447 55.608 567.882 59.847 L 367.507 -140.529 Z M 304.037 -40.435 L 275.537 -11.903 L 344.444 57.003 C 318.154 100.676 280.914 133.417 238.444 160.91 L 266.507 188.97 C 294.314 146.806 328.265 110.796 370.601 83.16 L 439.319 151.877 L 467.849 123.347 C 446.887 111.234 426.769 97.847 407.912 83.034 C 425.777 65.204 443.522 47.601 461.069 30.064 L 436.226 4.409 L 380.756 59.876 C 376.191 55.638 371.742 51.256 367.382 46.814 L 423.226 -9.03 L 398.696 -34.404 C 380.416 -16.548 362.094 1.656 343.538 20.19 C 328.47 1.603 315.158 -18.568 304.038 -40.435 Z" fill="#fff" fill-opacity="1" transform="matrix(0.5191720128059387, 0, 0, 0.5191720128059387, 14.05014419555664, 196.63101196289062)"/>
</svg>